<svg xmlns="http://www.w3.org/2000/svg" width="1200" height="630" viewBox="0 0 1200 630" fill="none">
  <defs>
    <linearGradient id="bg" x1="72" y1="40" x2="1118" y2="592" gradientUnits="userSpaceOnUse">
      <stop offset="0" stop-color="#FFF8E8"/>
      <stop offset=".52" stop-color="#F7FAFF"/>
      <stop offset="1" stop-color="#ECFDF5"/>
    </linearGradient>
  </defs>
  <rect width="1200" height="630" fill="url(#bg)"/>
  <circle cx="166" cy="116" r="166" fill="#FED7AA" opacity=".65"/>
  <circle cx="1020" cy="112" r="128" fill="#BAE6FD" opacity=".55"/>
  <circle cx="1038" cy="512" r="196" fill="#BBF7D0" opacity=".55"/>
  <rect x="80" y="90" width="1040" height="450" rx="36" fill="#FFFCF7" stroke="#E2E8F0" stroke-width="2"/>
  <text x="150" y="170" fill="#64748B" font-family="'Avenir Next', 'Segoe UI', 'Hiragino Sans', 'Noto Sans JP', sans-serif" font-size="28" font-weight="700" letter-spacing=".16em">AI + YOU + ME</text>
  <g transform="translate(120 154) scale(4)">
    <path d="M47 38C41.8 33 36.4 29.7 28.9 26.8C29.3 30.9 30.3 34.7 32 38.3C34.4 43 37.9 46.3 43.2 48.6C44.9 45.5 46.2 42.3 47 38Z" fill="#EFA24C"/>
    <path d="M49 38C54.2 33 59.6 29.7 67.1 26.8C66.7 30.9 65.7 34.7 64 38.3C61.6 43 58.1 46.3 52.8 48.6C51.1 45.5 49.8 42.3 49 38Z" fill="#43C796"/>
    <path d="M46.3 37.4H49.7V61.8H46.3V37.4Z" fill="#5DCBF3"/>
    <path d="M48 61.2C44.3 61.2 41.7 63.8 41.7 67.7C41.7 71 43.9 73.7 48 75.6C52.1 73.7 54.3 71 54.3 67.7C54.3 63.8 51.7 61.2 48 61.2Z" fill="#5DCBF3"/>
    <path d="M43.2 44.9C39.9 39.8 36.8 35.9 32.5 31.2" stroke="#D48A31" stroke-linecap="round" stroke-width="1.8"/>
    <path d="M52.8 44.9C56.1 39.8 59.2 35.9 63.5 31.2" stroke="#31B584" stroke-linecap="round" stroke-width="1.8"/>
  </g>
  <text x="446" y="274" font-family="'Avenir Next', 'Segoe UI', 'Hiragino Sans', 'Noto Sans JP', sans-serif" font-size="92" font-weight="800" letter-spacing="-0.05em">
    <tspan fill="#5DCBF3">AI</tspan><tspan fill="#EFA24C">You</tspan><tspan fill="#43C796">Me</tspan>
  </text>
  <text x="446" y="348" fill="#0F172A" font-family="'Avenir Next', 'Segoe UI', 'Hiragino Sans', 'Noto Sans JP', sans-serif" font-size="39" font-weight="700">Y は、3つの役割が芽吹く成長の形。</text>
  <text x="446" y="404" fill="#475569" font-family="'Avenir Next', 'Segoe UI', 'Hiragino Sans', 'Noto Sans JP', sans-serif" font-size="28" font-weight="600">You は左の葉、AI は中央の軸、Me は右の葉。色だけでなく位置でも見分けられる設計。</text>
  <text x="150" y="470" fill="#64748B" font-family="'Avenir Next', 'Segoe UI', 'Hiragino Sans', 'Noto Sans JP', sans-serif" font-size="24" font-weight="700" letter-spacing=".08em">DESIGN  •  SUPPORT  •  EXECUTE  •  IMPROVE</text>
</svg>
